<?xml version="1.0" encoding="UTF-8"?>
<svg id="Layer_1" data-name="Layer 1" xmlns="http://www.w3.org/2000/svg" width="12" height="5.88" viewBox="0 0 12 5.88">
  <defs>
    <style>
      .cls-1 {
        fill: #f2655a;
      }
    </style>
  </defs>
  <g id="tight-bounds">
    <g>
      <path class="cls-1" d="M1.31,3.14s-.5,.13-.66,1.58c0,0-.04,.14-.12,.22-.08,.08-.53,.41-.53,.68,0,0,.06,.19,.47,.14,.41-.05,.59-.38,.62-.42,.03-.03,.3-.11,.55-.14,.25-.03,.84-.36,.93-.47,.09-.11,.24-1.3-.43-1.49-.67-.19-.82-.09-.82-.09Z"/>
      <path class="cls-1" d="M1.82,2.82c0,.08-.78,.15-.89,0-.11-.15-.17-.22-.2-.41-.03-.19-.04-.36-.08-.4-.04-.05-.11-.19,.15-.14,.26,.05,.6,.12,.75,.4,.14,.26,.26,.39,.27,.56Z"/>
      <path class="cls-1" d="M3.63,4.99s-.27,.31-.6,.34c-.21,.02-.27,.06-.25,.11,.02,.05,.07,.09,.11,.09s.09,0,.14-.01c.05-.01,.12-.02,.09,.03-.03,.05-.1,.11-.13,.17-.03,.06-.03,.1-.02,.12,.01,.02,.08,.06,.14,.04,.06-.02,.21-.1,.67-.19,.08-.02,.18-.07,.21-.14,.03-.07,.09-.16,.1-.19,.01-.03,.05-.11,.07-.17,.01-.06,.09-.13,0-.15-.09-.02-.24-.03-.32-.03-.07,0-.21-.03-.23,0Z"/>
      <path class="cls-1" d="M4.99,4.44s-.89,.79-1.67,0c-.78-.79-.2-1.24-1.2-1.99,0,0-.13-.08-.03-.25,.1-.17,.96-1.23,.96-1.23,0,0,.14-.15,.39-.05,.23,.08,.99,.1,1.49,1.86,.26,.91,.12,1.49,.07,1.66Z"/>
      <path class="cls-1" d="M3.74,.64s1.06,.49,1.4,2.04c.34,1.55,.04,1.61,.19,1.61s.28-.13,.5-.24c.22-.11,.31-.15,.44-.17,.13-.02,.41-.05,.55-.05,.13,0,.13-.04,.16-.15,.03-.11,.85-2.32,.38-3.26,0,0-.13-.21-.48-.29-.35-.08-1.34-.39-2.98,.32,0,0-.28,.08-.16,.18Z"/>
      <path class="cls-1" d="M7.67,.45s.24,1.64-.35,3.01c0,0-.06,.15-.12,.25-.04,.08-.06,.11-.02,.12,.05,.01,.11,0,.14,0,.03,0,.84,.03,.85,.03s.1,.03,.15-.11c.05-.13,.75-1.44,.8-1.79,.05-.35-.04-.43-.14-.5-.1-.08-1.08-1.07-1.32-1.02Z"/>
      <path class="cls-1" d="M9.22,2.49s-.3,.87-.5,1.14c-.2,.27,.58,.47,.89,.56,.3,.09,.93,.31,1.14,.34,.21,.03,.9,.13,1.03,.13s.32-.06,.19-.17c-.13-.11-2.14-1.08-2.48-1.81l-.05-.12s-.07-.22-.21-.06Z"/>
      <path class="cls-1" d="M8.27,4.19s.23,.66,.08,.9c-.16,.25-.48,.37-.54,.41-.06,.04-.08,.05-.15,.05-.07,0-.1-.06-.08-.1,.02-.04,0-.12,0-.12,0,0-.38-.05-.41-.06-.04-.02-.12-.08-.06-.13,.06-.05,.36-.31,.43-.36,.08-.05,.05-.2,.05-.26,0-.06-.08-.25-.08-.25,0,0-.06-.17,.15-.18,.22-.01,.61,.09,.61,.09Z"/>
    </g>
  </g>
</svg>