<?xml version="1.0" encoding="UTF-8"?>
<svg id="Layer_1" data-name="Layer 1" xmlns="http://www.w3.org/2000/svg" width="13" height="6.37" viewBox="0 0 13 6.37">
  <defs>
    <style>
      .cls-1 {
        fill: #f2655a;
      }
    </style>
  </defs>
  <g id="tight-bounds">
    <g>
      <path class="cls-1" d="M1.42,3.4s-.54,.14-.72,1.71c0,0-.04,.15-.13,.24-.09,.09-.58,.44-.58,.74,0,0,.07,.2,.51,.15,.44-.05,.64-.42,.67-.45,.03-.04,.33-.12,.6-.15,.27-.04,.91-.39,1-.51,.09-.12,.25-1.41-.47-1.62-.72-.21-.89-.1-.89-.1Z"/>
      <path class="cls-1" d="M1.97,3.06c0,.09-.84,.16-.96,0-.12-.16-.18-.24-.22-.44-.04-.2-.04-.39-.09-.44-.04-.05-.12-.21,.16-.15,.28,.06,.65,.13,.82,.43,.15,.28,.28,.42,.29,.6Z"/>
      <path class="cls-1" d="M3.93,5.4s-.29,.34-.65,.36c-.23,.02-.3,.06-.27,.12,.02,.06,.07,.1,.11,.1s.1,0,.16-.01c.05-.01,.13-.03,.1,.03-.03,.06-.11,.12-.14,.18-.04,.07-.04,.11-.02,.13,.01,.02,.09,.07,.15,.04,.06-.03,.23-.11,.73-.21,.09-.02,.2-.07,.23-.15,.04-.08,.09-.17,.11-.21,.01-.04,.06-.12,.07-.18,.01-.07,.1-.15,0-.17-.1-.02-.26-.03-.34-.04-.08,0-.23-.04-.25,0Z"/>
      <path class="cls-1" d="M5.41,4.81s-.96,.85-1.81,0c-.84-.85-.22-1.34-1.3-2.16,0,0-.15-.09-.04-.27,.11-.18,1.04-1.33,1.04-1.33,0,0,.15-.16,.42-.06,.25,.09,1.08,.11,1.61,2.02,.28,.99,.13,1.61,.07,1.8Z"/>
      <path class="cls-1" d="M4.05,.7s1.15,.53,1.51,2.21c.36,1.67,.04,1.75,.2,1.75s.31-.14,.54-.26c.23-.12,.34-.16,.48-.18,.14-.02,.45-.05,.59-.06,.15,0,.14-.04,.17-.16,.03-.12,.92-2.51,.41-3.53,0,0-.14-.22-.51-.31-.38-.09-1.46-.43-3.22,.35,0,0-.3,.09-.18,.2Z"/>
      <path class="cls-1" d="M8.31,.49s.26,1.78-.38,3.26c0,0-.06,.16-.13,.27-.05,.08-.07,.12-.02,.13,.06,.02,.12,0,.15,0,.03,0,.91,.03,.92,.03s.11,.03,.16-.11c.05-.14,.81-1.56,.87-1.94,.06-.38-.05-.46-.15-.54-.1-.08-1.17-1.16-1.43-1.1Z"/>
      <path class="cls-1" d="M9.98,2.7s-.33,.95-.55,1.24c-.22,.29,.63,.51,.96,.61,.33,.1,1.01,.33,1.24,.36,.23,.03,.98,.14,1.11,.14s.34-.07,.2-.19c-.14-.12-2.31-1.17-2.69-1.97l-.06-.13s-.08-.23-.23-.07Z"/>
      <path class="cls-1" d="M8.96,4.54s.25,.71,.08,.98c-.17,.27-.52,.4-.59,.45-.06,.04-.09,.06-.16,.06-.07,0-.1-.06-.09-.11,.02-.05,0-.13,0-.13,0,0-.41-.05-.45-.07-.04-.02-.13-.08-.06-.14,.07-.06,.39-.34,.47-.39,.08-.05,.05-.21,.05-.28,0-.07-.08-.27-.08-.27,0,0-.07-.18,.16-.2,.23-.02,.66,.1,.66,.1Z"/>
    </g>
  </g>
</svg>