<?xml version="1.0" encoding="UTF-8"?>
<svg id="Layer_1" data-name="Layer 1" xmlns="http://www.w3.org/2000/svg" width="14" height="6.86" viewBox="0 0 14 6.86">
  <defs>
    <style>
      .cls-1 {
        fill: #f2655a;
      }
    </style>
  </defs>
  <g id="tight-bounds">
    <g>
      <path class="cls-1" d="M1.53,3.66s-.59,.15-.77,1.84c0,0-.04,.16-.14,.25-.09,.09-.62,.48-.62,.79,0,0,.07,.22,.55,.16,.48-.05,.69-.45,.72-.49,.03-.04,.35-.13,.64-.16,.29-.04,.98-.42,1.08-.55,.1-.13,.27-1.51-.5-1.74-.78-.23-.96-.11-.96-.11Z"/>
      <path class="cls-1" d="M2.12,3.29c0,.1-.91,.17-1.04,0-.13-.17-.2-.26-.24-.48-.04-.22-.05-.42-.09-.47-.05-.05-.13-.23,.17-.16,.3,.06,.7,.14,.88,.46,.17,.31,.3,.45,.31,.65Z"/>
      <path class="cls-1" d="M4.23,5.82s-.31,.36-.7,.39c-.25,.02-.32,.07-.29,.13,.03,.06,.08,.11,.12,.11s.11,0,.17-.01c.05-.01,.14-.03,.11,.03-.03,.06-.12,.13-.15,.2-.04,.07-.04,.12-.02,.14,.02,.02,.09,.07,.16,.04,.07-.03,.25-.11,.79-.22,.1-.02,.21-.08,.25-.17,.04-.09,.1-.19,.12-.23,.02-.04,.06-.13,.08-.2,.02-.07,.11-.16,0-.18-.11-.02-.28-.03-.37-.04-.09,0-.24-.04-.27,0Z"/>
      <path class="cls-1" d="M5.83,5.18s-1.04,.92-1.94,0c-.91-.92-.24-1.44-1.4-2.32,0,0-.16-.09-.04-.29,.12-.2,1.12-1.44,1.12-1.44,0,0,.16-.17,.45-.06,.27,.1,1.16,.12,1.73,2.17,.3,1.07,.14,1.73,.08,1.94Z"/>
      <path class="cls-1" d="M4.36,.75s1.24,.58,1.63,2.38c.39,1.8,.05,1.88,.22,1.88s.33-.15,.58-.28c.25-.13,.37-.17,.52-.19,.15-.02,.48-.06,.64-.06,.16,0,.15-.05,.19-.17,.04-.13,.99-2.71,.44-3.81,0,0-.15-.24-.55-.33-.41-.09-1.57-.46-3.47,.38,0,0-.32,.1-.19,.21Z"/>
      <path class="cls-1" d="M8.94,.53s.28,1.91-.41,3.51c0,0-.07,.17-.14,.29-.05,.09-.07,.13-.02,.14,.06,.02,.13,0,.16,0,.04,0,.98,.04,1,.04s.12,.03,.17-.12c.05-.15,.88-1.68,.94-2.09,.06-.41-.05-.5-.16-.58-.11-.09-1.26-1.25-1.54-1.19Z"/>
      <path class="cls-1" d="M10.75,2.9s-.35,1.02-.59,1.33c-.24,.31,.68,.55,1.04,.66,.35,.11,1.09,.36,1.33,.39,.24,.03,1.05,.15,1.2,.15s.37-.07,.22-.2c-.15-.13-2.49-1.26-2.89-2.12l-.06-.14s-.09-.25-.24-.07Z"/>
      <path class="cls-1" d="M9.65,4.89s.27,.77,.09,1.05c-.18,.29-.56,.43-.63,.48-.07,.04-.1,.06-.18,.06-.08,0-.11-.07-.09-.12,.02-.05,0-.14,0-.14,0,0-.44-.05-.48-.07-.04-.02-.14-.09-.07-.15,.07-.06,.41-.36,.51-.42,.09-.05,.06-.23,.06-.3,0-.07-.09-.29-.09-.29,0,0-.08-.19,.18-.21,.25-.02,.71,.11,.71,.11Z"/>
    </g>
  </g>
</svg>