<?xml version="1.0" encoding="UTF-8"?>
<svg id="Layer_1" data-name="Layer 1" xmlns="http://www.w3.org/2000/svg" width="15" height="7.35" viewBox="0 0 15 7.35">
  <defs>
    <style>
      .cls-1 {
        fill: #f2655a;
      }
    </style>
  </defs>
  <g id="tight-bounds">
    <g>
      <path class="cls-1" d="M1.64,3.93s-.63,.16-.83,1.97c0,0-.05,.17-.15,.27-.1,.1-.66,.51-.66,.85,0,0,.08,.24,.59,.18,.51-.06,.74-.48,.77-.52,.03-.04,.38-.13,.69-.18,.31-.04,1.05-.45,1.16-.59,.11-.13,.29-1.62-.54-1.87-.83-.24-1.03-.12-1.03-.12Z"/>
      <path class="cls-1" d="M2.27,3.53c0,.1-.97,.18-1.11,0-.13-.18-.21-.28-.25-.51-.04-.24-.05-.45-.1-.5-.05-.06-.13-.24,.18-.18,.32,.07,.75,.15,.94,.5,.18,.33,.32,.49,.34,.7Z"/>
      <path class="cls-1" d="M4.54,6.24s-.34,.39-.75,.42c-.26,.02-.34,.07-.31,.14,.03,.07,.08,.12,.13,.12s.12,0,.18-.01c.06-.01,.15-.03,.12,.04-.03,.07-.12,.14-.16,.21-.04,.08-.04,.13-.03,.15,.02,.03,.1,.08,.18,.05,.07-.03,.26-.12,.84-.24,.1-.02,.23-.08,.27-.18,.04-.09,.11-.2,.13-.24,.02-.04,.07-.13,.08-.21,.02-.08,.12-.17,0-.19-.12-.03-.3-.03-.39-.04-.09,0-.26-.04-.29,0Z"/>
      <path class="cls-1" d="M6.24,5.55s-1.11,.98-2.08,0c-.97-.98-.25-1.55-1.5-2.49,0,0-.17-.1-.04-.31,.13-.21,1.2-1.54,1.2-1.54,0,0,.17-.18,.49-.07,.29,.11,1.24,.12,1.86,2.33,.32,1.14,.15,1.86,.08,2.08Z"/>
      <path class="cls-1" d="M4.67,.81s1.32,.62,1.74,2.55c.42,1.93,.05,2.02,.24,2.02s.35-.16,.62-.3c.27-.14,.39-.18,.55-.21,.16-.02,.52-.06,.68-.07,.17,0,.16-.05,.2-.18,.04-.13,1.06-2.9,.48-4.08,0,0-.16-.26-.59-.36-.44-.1-1.68-.49-3.72,.4,0,0-.34,.1-.2,.23Z"/>
      <path class="cls-1" d="M9.58,.56s.3,2.05-.44,3.76c0,0-.07,.18-.15,.31-.05,.09-.08,.14-.02,.15,.07,.02,.14,0,.17,0,.04,0,1.05,.04,1.07,.04s.13,.03,.19-.13c.06-.17,.94-1.8,1.01-2.23,.07-.44-.05-.53-.17-.63-.12-.09-1.35-1.34-1.65-1.27Z"/>
      <path class="cls-1" d="M11.52,3.11s-.38,1.09-.63,1.43c-.25,.34,.73,.59,1.11,.71,.38,.12,1.17,.39,1.43,.42,.26,.03,1.13,.16,1.29,.16s.39-.08,.24-.22c-.16-.14-2.67-1.35-3.1-2.27l-.07-.15s-.09-.27-.26-.08Z"/>
      <path class="cls-1" d="M10.34,5.24s.29,.82,.1,1.13c-.19,.31-.6,.47-.68,.51-.07,.05-.11,.07-.19,.07-.08,0-.12-.07-.1-.13,.02-.06,0-.15,0-.15,0,0-.47-.06-.52-.08-.04-.02-.15-.1-.07-.16,.08-.07,.44-.39,.54-.45,.1-.06,.06-.25,.06-.32,0-.08-.1-.31-.1-.31,0,0-.08-.21,.19-.23,.27-.02,.76,.12,.76,.12Z"/>
    </g>
  </g>
</svg>