<?xml version="1.0" encoding="UTF-8"?>
<svg id="Layer_1" data-name="Layer 1" xmlns="http://www.w3.org/2000/svg" width="16" height="7.84" viewBox="0 0 16 7.84">
  <defs>
    <style>
      .cls-1 {
        fill: #f2655a;
      }
    </style>
  </defs>
  <g id="tight-bounds">
    <g>
      <path class="cls-1" d="M1.75,4.19s-.67,.17-.88,2.1c0,0-.05,.18-.16,.29-.11,.11-.71,.55-.71,.91,0,0,.08,.25,.63,.19,.55-.06,.79-.51,.82-.56,.04-.04,.4-.14,.73-.19,.33-.04,1.12-.48,1.24-.63,.12-.14,.31-1.73-.57-1.99-.89-.26-1.1-.13-1.1-.13Z"/>
      <path class="cls-1" d="M2.42,3.77c0,.11-1.04,.2-1.18,0-.14-.2-.22-.3-.27-.55-.04-.25-.05-.47-.11-.54-.05-.06-.14-.26,.2-.19,.34,.07,.8,.16,1,.53,.19,.35,.34,.52,.36,.74Z"/>
      <path class="cls-1" d="M4.84,6.65s-.36,.42-.8,.45c-.28,.02-.36,.08-.33,.15,.03,.07,.09,.12,.14,.12s.12,0,.19-.01c.06-.01,.16-.03,.12,.04-.04,.07-.13,.15-.17,.22-.04,.08-.04,.13-.03,.16,.02,.03,.11,.08,.19,.05,.08-.03,.28-.13,.9-.25,.11-.02,.24-.09,.29-.19,.04-.1,.12-.22,.13-.26,.02-.04,.07-.14,.09-.22,.02-.08,.13-.18,0-.21-.13-.03-.32-.04-.42-.04-.1,0-.28-.04-.3,0Z"/>
      <path class="cls-1" d="M6.66,5.92s-1.18,1.05-2.22,0c-1.04-1.05-.27-1.65-1.6-2.65,0,0-.18-.11-.04-.33,.13-.22,1.28-1.64,1.28-1.64,0,0,.18-.2,.52-.07,.31,.11,1.32,.13,1.98,2.48,.34,1.22,.16,1.98,.09,2.21Z"/>
      <path class="cls-1" d="M4.99,.86s1.41,.66,1.86,2.72c.45,2.06,.05,2.15,.25,2.15s.38-.17,.66-.32c.29-.15,.42-.2,.59-.22,.17-.02,.55-.07,.73-.07,.18,0,.17-.05,.22-.2,.04-.14,1.13-3.09,.51-4.35,0,0-.17-.27-.63-.38-.47-.11-1.79-.53-3.97,.43,0,0-.37,.11-.22,.24Z"/>
      <path class="cls-1" d="M10.22,.6s.32,2.19-.47,4.01c0,0-.07,.19-.16,.33-.06,.1-.08,.15-.02,.16,.07,.02,.15,0,.18,0,.04,0,1.12,.04,1.14,.04s.14,.04,.2-.14c.06-.18,1-1.92,1.07-2.38,.07-.47-.06-.57-.18-.67-.13-.1-1.44-1.42-1.76-1.36Z"/>
      <path class="cls-1" d="M12.29,3.32s-.4,1.17-.67,1.52c-.27,.36,.78,.63,1.18,.75,.4,.13,1.25,.41,1.52,.45,.28,.04,1.2,.17,1.37,.17s.42-.08,.25-.23c-.17-.15-2.85-1.44-3.31-2.42l-.07-.16s-.1-.29-.28-.08Z"/>
      <path class="cls-1" d="M11.03,5.59s.31,.88,.1,1.2c-.21,.33-.64,.5-.72,.55-.08,.05-.11,.07-.2,.07-.09,0-.13-.08-.11-.14,.02-.06,0-.16,0-.16,0,0-.5-.06-.55-.08-.05-.02-.16-.1-.08-.17,.08-.07,.47-.41,.58-.47,.1-.06,.06-.26,.06-.34,0-.08-.1-.33-.1-.33,0,0-.09-.22,.2-.24,.29-.02,.82,.12,.82,.12Z"/>
    </g>
  </g>
</svg>