<?xml version="1.0" encoding="UTF-8"?>
<svg id="Layer_1" data-name="Layer 1" xmlns="http://www.w3.org/2000/svg" width="17" height="8.33" viewBox="0 0 17 8.33">
  <defs>
    <style>
      .cls-1 {
        fill: #f2655a;
      }
    </style>
  </defs>
  <g id="tight-bounds">
    <g>
      <path class="cls-1" d="M1.86,4.45s-.71,.18-.94,2.23c0,0-.05,.19-.17,.31-.11,.11-.75,.58-.75,.96,0,0,.09,.27,.67,.2,.58-.07,.84-.54,.88-.59,.04-.05,.43-.15,.78-.2,.35-.05,1.19-.51,1.31-.67,.12-.15,.33-1.84-.61-2.11-.94-.28-1.17-.13-1.17-.13Z"/>
      <path class="cls-1" d="M2.57,4c0,.12-1.1,.21-1.26,0-.15-.21-.24-.31-.29-.58-.05-.27-.06-.5-.11-.57-.06-.07-.15-.28,.21-.2,.36,.08,.85,.16,1.07,.56,.2,.37,.36,.55,.38,.79Z"/>
      <path class="cls-1" d="M5.14,7.07c-.03,.05-.38,.44-.85,.48-.3,.02-.39,.08-.35,.16,.03,.08,.09,.13,.15,.13s.13,0,.2-.01c.07-.02,.17-.03,.13,.04-.04,.08-.14,.16-.18,.24-.05,.09-.05,.14-.03,.17,.02,.03,.11,.09,.2,.05,.08-.03,.3-.14,.95-.27,.12-.02,.26-.1,.3-.2,.05-.1,.12-.23,.14-.28,.02-.05,.08-.15,.1-.24,.02-.09,.13-.19,0-.22-.13-.03-.34-.04-.45-.05-.1,0-.3-.05-.32,0Z"/>
      <path class="cls-1" d="M7.07,6.29s-1.26,1.12-2.36,0c-1.1-1.12-.29-1.75-1.7-2.82,0,0-.19-.11-.05-.35,.14-.24,1.36-1.74,1.36-1.74,0,0,.2-.21,.55-.08,.33,.12,1.41,.14,2.1,2.64,.36,1.3,.17,2.11,.1,2.35Z"/>
      <path class="cls-1" d="M5.3,.91s1.5,.7,1.98,2.89c.48,2.19,.06,2.29,.27,2.29s.4-.18,.7-.34c.3-.16,.44-.21,.63-.23,.18-.03,.58-.07,.77-.08,.19,0,.18-.06,.23-.21,.04-.15,1.2-3.29,.54-4.62,0,0-.18-.29-.67-.41-.5-.11-1.9-.56-4.22,.46,0,0-.39,.12-.23,.26Z"/>
      <path class="cls-1" d="M10.86,.64s.34,2.32-.5,4.27c0,0-.08,.21-.17,.36-.06,.11-.09,.16-.03,.17,.08,.02,.16,0,.19,0,.04,0,1.19,.04,1.21,.04s.15,.04,.21-.15c.06-.19,1.06-2.03,1.14-2.53,.08-.5-.06-.6-.2-.71-.14-.11-1.53-1.51-1.87-1.44Z"/>
      <path class="cls-1" d="M13.05,3.52s-.43,1.24-.71,1.62c-.29,.38,.83,.67,1.26,.8,.43,.13,1.32,.44,1.62,.48,.3,.04,1.28,.18,1.46,.18s.45-.09,.27-.25c-.18-.16-3.03-1.53-3.51-2.57l-.08-.17s-.1-.3-.3-.09Z"/>
      <path class="cls-1" d="M11.72,5.94s.33,.93,.11,1.28c-.22,.35-.68,.53-.77,.58-.08,.05-.12,.08-.21,.08-.09,0-.14-.08-.11-.14,.02-.06,0-.17,0-.17,0,0-.53-.06-.58-.09-.05-.02-.16-.11-.08-.18,.09-.07,.5-.44,.61-.5,.11-.06,.07-.28,.07-.37,0-.09-.11-.35-.11-.35,0,0-.09-.24,.21-.26,.31-.02,.87,.13,.87,.13Z"/>
    </g>
  </g>
</svg>