<?xml version="1.0" encoding="UTF-8"?>
<svg id="Layer_1" data-name="Layer 1" xmlns="http://www.w3.org/2000/svg" width="18" height="8.82" viewBox="0 0 18 8.82">
  <defs>
    <style>
      .cls-1 {
        fill: #f2655a;
      }
    </style>
  </defs>
  <g id="tight-bounds">
    <g>
      <path class="cls-1" d="M1.97,4.71s-.75,.19-.99,2.37c0,0-.06,.2-.18,.33-.12,.12-.8,.62-.8,1.02,0,0,.09,.28,.71,.21,.62-.07,.89-.57,.93-.63,.04-.05,.45-.16,.83-.21,.37-.05,1.26-.54,1.39-.71,.13-.16,.35-1.95-.65-2.24-1-.29-1.24-.14-1.24-.14Z"/>
      <path class="cls-1" d="M2.72,4.24c0,.12-1.17,.22-1.33,0-.16-.22-.25-.33-.3-.62-.05-.28-.06-.53-.12-.6-.06-.07-.16-.29,.22-.21,.38,.08,.9,.17,1.13,.59,.21,.39,.38,.58,.4,.84Z"/>
      <path class="cls-1" d="M5.44,7.48c-.03,.05-.4,.47-.9,.5-.32,.02-.41,.09-.38,.17,.03,.08,.1,.14,.16,.14s.14,0,.22-.02c.07-.02,.18-.04,.14,.04-.04,.08-.15,.17-.19,.25-.05,.09-.05,.15-.03,.18,.02,.03,.12,.09,.21,.05,.09-.04,.32-.15,1.01-.29,.12-.02,.27-.1,.32-.21,.05-.11,.13-.24,.15-.29,.02-.05,.08-.16,.1-.25,.02-.09,.14-.2,0-.23-.14-.03-.36-.04-.47-.05-.11-.01-.31-.05-.34,0Z"/>
      <path class="cls-1" d="M7.49,6.66s-1.33,1.18-2.5,0c-1.17-1.18-.3-1.86-1.8-2.99,0,0-.2-.12-.05-.37,.15-.25,1.44-1.85,1.44-1.85,0,0,.21-.22,.58-.08,.34,.13,1.49,.15,2.23,2.79,.38,1.37,.18,2.23,.1,2.49Z"/>
      <path class="cls-1" d="M5.61,.97s1.59,.74,2.09,3.06c.5,2.32,.06,2.42,.28,2.42s.42-.19,.75-.36c.32-.17,.47-.22,.67-.25,.19-.03,.62-.07,.82-.08,.2,0,.19-.06,.24-.22,.05-.16,1.27-3.48,.57-4.89,0,0-.19-.31-.71-.43-.52-.12-2.02-.59-4.46,.48,0,0-.41,.12-.24,.28Z"/>
      <path class="cls-1" d="M11.5,.68s.35,2.46-.52,4.52c0,0-.08,.22-.17,.38-.07,.11-.09,.17-.03,.18,.08,.02,.17,0,.2,0,.05,0,1.26,.05,1.28,.05s.16,.04,.22-.16c.07-.2,1.13-2.15,1.21-2.68,.08-.53-.06-.64-.21-.75-.14-.11-1.62-1.6-1.98-1.53Z"/>
      <path class="cls-1" d="M13.82,3.73s-.45,1.31-.76,1.71c-.3,.4,.88,.71,1.33,.85,.45,.14,1.4,.46,1.71,.5,.31,.04,1.35,.19,1.54,.19s.47-.09,.28-.26c-.19-.17-3.2-1.62-3.72-2.72l-.08-.18s-.11-.32-.31-.09Z"/>
      <path class="cls-1" d="M12.41,6.29s.35,.98,.11,1.35c-.23,.37-.72,.56-.81,.62-.09,.06-.13,.08-.23,.08-.1,0-.14-.09-.12-.15,.02-.07,0-.18,0-.18,0,0-.57-.07-.62-.09-.05-.03-.17-.11-.08-.19,.09-.08,.53-.47,.65-.53,.12-.07,.07-.29,.07-.39,0-.09-.11-.37-.11-.37,0,0-.1-.25,.23-.27,.32-.02,.92,.14,.92,.14Z"/>
    </g>
  </g>
</svg>