<svg xmlns="http://www.w3.org/2000/svg" version="1.1" width="800" height="395" viewBox="0 0 800 395">
    <g transform="matrix(1,0,0,1,2.025263157894699,-0.934339577344474)">
        <svg viewBox="0 0 95 47" data-background-color="#ffffff" preserveAspectRatio="xMidYMid meet" height="395" width="800" xmlns="http://www.w3.org/2000/svg">
            <g id="tight-bounds" transform="matrix(1,0,0,1,-0.24049999999999727,0.11117458262073399)">
                <svg viewBox="0 0 95.48100000000001 46.777650834758525" height="46.777650834758525" width="95.48100000000001">
                    <g>
                        <svg viewBox="0 0 95.48100000000001 46.777650834758525" height="46.777650834758525" width="95.48100000000001">
                            <g>
                                <svg viewBox="0 0 95.48100000000001 46.777650834758525" height="46.777650834758525" width="95.48100000000001">
                                    <g>
                                        <svg viewBox="0 0 95.48100000000001 46.777650834758525" height="46.777650834758525" width="95.48100000000001">
                                            <g>
                                                <svg viewBox="0 0 95.48100000000001 46.777650834758525" height="46.777650834758525" width="95.48100000000001">
                                                    <g>
                                                        <svg viewBox="0 0 95.48100000000001 46.777650834758525" height="46.777650834758525" width="95.48100000000001">
                                                            <g>
                                                                <svg xmlns="http://www.w3.org/2000/svg" version="1.1" x="0" y="0"
                                                                     viewBox="120.218 223.51243593897362 715.1675847621839 350.3719019317247" enable-background="new 0 0 960 792"
                                                                     xml:space="preserve" height="46.777650834758525" width="95.48100000000001" class="icon-icon-0"
                                                                     data-fill-palette-color="accent" id="icon-0"><path d="M198.465 410.649c0 0-29.91 7.479-39.524 94.005 0 0-2.271 8.142-7.077 12.95-4.807 4.807-31.646 24.436-31.646 40.457 0 0 3.605 11.217 28.041 8.412 24.436-2.803 35.251-22.832 36.853-24.835 1.602-2.004 18.026-6.409 32.848-8.412 14.822-2.004 50.072-21.631 55.279-28.04 5.208-6.41 14.021-77.312-25.637-88.929C207.945 404.641 198.465 410.649 198.465 410.649z" fill="#f46559" data-fill-palette-color="accent"></path>
                                                                    <path d="M228.468 391.819c0.396 4.939-46.467 8.813-52.876 0-6.409-8.812-10.014-13.219-12.017-24.435-2.003-11.216-2.403-21.23-4.807-24.034-2.403-2.804-6.41-11.617 8.812-8.413 15.222 3.205 35.797 6.941 44.865 23.635C220.948 374.225 227.667 381.805 228.468 391.819z"
                                                                          fill="#f46559" data-fill-palette-color="accent"></path>
                                                                    <path d="M336.531 520.809c-1.229 2.104-16.076 18.614-35.652 20.028-12.53 0.907-16.278 3.378-14.918 6.582 1.359 3.204 3.917 5.522 6.321 5.522 2.404 0 5.494 0.113 8.619-0.625 2.787-0.654 7.187-1.465 5.585 1.739-1.602 3.205-5.918 6.732-7.611 10.015-1.942 3.769-2.002 6.009-1.201 7.211 0.801 1.201 4.738 3.593 8.378 2.159 3.537-1.396 12.619-5.784 40.164-11.354 4.865-0.981 10.744-4.024 12.747-8.43 2.002-4.407 5.208-9.614 6.009-11.616 0.801-2.004 3.205-6.411 4.006-10.015 0.801-3.605 5.607-8.013 0-9.213-5.608-1.203-14.421-1.604-18.828-2.004C345.744 520.407 337.666 518.861 336.531 520.809z"
                                                                          fill="#f46559" data-fill-palette-color="accent"></path>
                                                                    <path d="M417.848 488.012c0 0-52.876 46.917-99.344 0-46.467-46.918-12.018-73.757-71.704-118.622 0 0-8.005-4.808-2-14.822 6.006-10.014 57.28-73.306 57.28-73.306s8.269-8.733 23.233-3.204c13.675 5.053 59.167 5.878 88.527 110.959C429.063 443.497 421.053 477.646 417.848 488.012z"
                                                                          fill="#f46559" data-fill-palette-color="accent"></path>
                                                                    <path d="M343.103 261.896c0 0 63.128 29.382 83.158 121.514 20.029 92.133 2.403 96.139 11.215 96.139 8.813 0 16.824-7.745 29.644-14.421 12.819-6.675 18.693-8.81 26.438-9.88 7.742-1.07 24.567-2.936 32.579-3.204 8.011-0.27 7.742-2.404 9.613-8.812 1.872-6.41 50.473-138.334 22.702-194.416 0 0-7.479-12.285-28.31-17.091-20.83-4.807-80.113-23.501-177.321 19.228C352.821 250.952 336.425 255.848 343.103 261.896z"
                                                                          fill="#f46559" data-fill-palette-color="accent"></path>
                                                                    <path d="M577.145 250.418c0 0 14.099 97.791-20.83 179.458 0 0-3.348 8.682-6.944 14.956-2.595 4.528-3.593 6.65-1.052 7.313 3.243 0.849 6.822-0.013 8.124-0.037 1.796-0.031 50.079 1.803 50.881 1.803 0.801 0 6.208 1.603 8.911-6.31 2.705-7.911 44.766-85.604 47.971-106.544 3.204-20.94-2.504-25.346-8.213-29.853C650.285 306.7 591.531 247.514 577.145 250.418z"
                                                                          fill="#f46559" data-fill-palette-color="accent"></path>
                                                                    <path d="M669.412 371.793c0 0-18.026 52.075-30.043 68.098-12.018 16.023 34.85 28.041 52.875 33.649 18.027 5.607 55.682 18.426 68.099 20.027 12.418 1.603 53.678 7.611 61.289 7.611 7.61 0 18.827-3.604 11.216-10.414-7.61-6.811-127.289-64.435-147.813-108.157l-3.204-7.21C681.83 375.399 677.424 362.58 669.412 371.793z"
                                                                          fill="#f46559" data-fill-palette-color="accent"></path>
                                                                    <path d="M613.112 473.462c0 0 13.846 39.119 4.55 53.818-9.295 14.696-28.803 22.197-32.258 24.498-3.463 2.297-5.008 3.192-8.961 3.161-3.952-0.035-5.699-3.409-4.728-6.087 0.973-2.679-0.308-7.28-0.308-7.28s-22.477-2.731-24.586-3.73c-2.108-1.004-6.938-4.564-3.354-7.691 3.583-3.13 21.184-18.54 25.83-21.229 4.644-2.688 2.904-11.711 2.898-15.388-0.008-3.677-4.532-14.817-4.532-14.817s-3.868-9.912 8.982-10.787C589.496 467.053 613.112 473.462 613.112 473.462z"
                                                                          fill="#f46559" data-fill-palette-color="accent"></path></svg>
                                                            </g>
                                                        </svg>
                                                    </g>
                                                </svg>
                                            </g>
                                        </svg>
                                    </g>
                                </svg>
                            </g>
                        </svg>
                    </g>
                    <defs></defs>
                </svg>
                <rect width="95.48100000000001" height="46.777650834758525" fill="none" stroke="none" visibility="hidden"></rect>
            </g>
        </svg>
    </g>
</svg>